# 3ds Max Wavefront OBJ Exporter v0.97b - (c)2007 guruware
# File Created: 11.03.2014 18:49:00

mtllib incense.mtl

#
# object incenseHolder
#

v  -4.0312 0.0000 1.4330
v  -4.8431 0.0000 0.4331
v  3.9688 0.0000 0.4331
v  3.9688 0.0000 1.4330
v  -4.8431 0.0000 -0.5668
v  3.9688 0.0000 -0.5668
v  -4.0312 0.0000 -1.5667
v  3.9688 0.0000 -1.5667
v  -4.0312 0.5000 1.4330
v  3.9688 0.5000 1.4330
v  3.9688 0.5000 0.4331
v  -4.8431 0.5000 0.4331
v  3.9688 0.5000 -0.5668
v  -4.8431 0.5000 -0.5668
v  3.9688 0.5000 -1.5667
v  -4.0312 0.5000 -1.5667
v  5.3833 0.9349 1.4330
v  5.9786 1.6199 0.4331
v  5.6672 2.0111 0.4331
v  5.0719 1.3261 1.4330
v  5.9786 1.6199 -0.5668
v  5.6672 2.0111 -0.5668
v  5.3833 0.9349 -1.5667
v  5.0719 1.3261 -1.5667
v  4.8471 0.4096 0.4331
v  4.8471 0.4096 1.4330
v  4.8471 0.4096 -0.5668
v  4.8471 0.4096 -1.5667
v  4.5729 0.8277 -1.5667
v  4.5729 0.8277 -0.5668
v  4.5729 0.8277 0.4331
v  4.5729 0.8277 1.4330
# 32 vertices

vn -0.3367 -0.6219 0.7070
vn -0.7249 -0.6390 0.2572
vn 0.2165 -0.9763 -0.0000
vn 0.1623 -0.7322 0.6615
vn -0.7249 -0.6390 -0.2572
vn -0.3367 -0.6219 -0.7070
vn 0.1623 -0.7322 -0.6615
vn -0.3367 0.6219 0.7070
vn -0.1579 0.6221 0.7669
vn -0.2460 0.9693 -0.0000
vn -0.7249 0.6390 0.2572
vn -0.7249 0.6390 -0.2572
vn -0.1579 0.6221 -0.7669
vn -0.3367 0.6219 -0.7070
vn 0.6789 -0.2681 0.6835
vn 0.9628 0.0275 0.2686
vn 0.0897 0.9538 0.2868
vn -0.1881 0.6599 0.7274
vn 0.9633 0.0298 -0.2667
vn 0.0917 0.9542 -0.2847
vn 0.6722 -0.2502 -0.6968
vn -0.1722 0.6522 -0.7382
vn 0.5873 -0.8094 -0.0000
vn 0.4331 -0.6065 0.6668
vn 0.5836 -0.8120 0.0049
vn 0.4221 -0.6095 -0.6711
vn -0.4057 0.5296 -0.7449
vn -0.6137 0.7895 -0.0000
vn -0.6106 0.7919 0.0043
vn -0.4016 0.5384 0.7408
# 30 vertex normals

vt 0.0938 0.5313 0.0000
vt 0.0313 0.4688 0.0000
vt 0.5938 0.4688 0.0000
vt 0.5938 0.5313 0.0000
vt 0.0313 0.4063 0.0000
vt 0.5938 0.4063 0.0000
vt 0.0938 0.3438 0.0000
vt 0.5938 0.3438 0.0000
vt 0.0938 0.0625 0.0000
vt 0.5938 0.0625 0.0000
vt 0.5938 0.1250 0.0000
vt 0.0313 0.1250 0.0000
vt 0.5938 0.1875 0.0000
vt 0.0313 0.1875 0.0000
vt 0.5938 0.2500 0.0000
vt 0.0938 0.2500 0.0000
vt 0.0938 0.0313 0.0000
vt 0.5938 0.0313 0.0000
vt 0.7500 0.0313 0.0000
vt 0.8125 0.0938 0.0000
vt 0.7813 0.1250 0.0000
vt 0.7188 0.0625 0.0000
vt 0.8125 0.1250 0.0000
vt 0.8125 0.1875 0.0000
vt 0.7813 0.1875 0.0000
vt 0.8125 0.2188 0.0000
vt 0.7500 0.2813 0.0000
vt 0.7188 0.2500 0.0000
vt 0.5938 0.2813 0.0000
vt 0.0938 0.2813 0.0000
vt 0.0625 0.2813 0.0000
vt 0.0000 0.2188 0.0000
vt 0.0000 0.1875 0.0000
vt -0.0000 0.1250 0.0000
vt -0.0000 0.0938 0.0000
vt 0.0625 0.0313 0.0000
vt 0.6563 0.4688 0.0000
vt 0.6563 0.5313 0.0000
vt 0.6563 0.4063 0.0000
vt 0.6563 0.3438 0.0000
vt 0.6563 0.2500 0.0000
vt 0.6563 0.2813 0.0000
vt 0.6563 0.1875 0.0000
vt 0.6563 0.1250 0.0000
vt 0.6563 0.0625 0.0000
vt 0.6563 0.0313 0.0000
vt 0.7813 0.4688 0.0000
vt 0.7188 0.5313 0.0000
vt 0.7813 0.4063 0.0000
vt 0.7188 0.3438 0.0000
vt 0.7188 0.2813 0.0000
vt 0.7188 0.0313 0.0000
# 52 texture coords

g incenseHolder
usemtl default
s 1
f 1/1/1 2/2/2 3/3/3 
f 3/3/3 4/4/4 1/1/1 
f 2/2/2 5/5/5 6/6/3 
f 6/6/3 3/3/3 2/2/2 
f 5/5/5 7/7/6 8/8/7 
f 8/8/7 6/6/3 5/5/5 
f 9/9/8 10/10/9 11/11/10 
f 11/11/10 12/12/11 9/9/8 
f 12/12/11 11/11/10 13/13/10 
f 13/13/10 14/14/12 12/12/11 
f 14/14/12 13/13/10 15/15/13 
f 15/15/13 16/16/14 14/14/12 
f 1/17/1 4/18/4 10/10/9 
f 10/10/9 9/9/8 1/17/1 
f 17/19/15 18/20/16 19/21/17 
f 19/21/17 20/22/18 17/19/15 
f 18/23/16 21/24/19 22/25/20 
f 22/25/20 19/21/17 18/23/16 
f 21/26/19 23/27/21 24/28/22 
f 24/28/22 22/25/20 21/26/19 
f 8/29/7 7/30/6 16/16/14 
f 16/16/14 15/15/13 8/29/7 
f 7/31/6 5/32/5 14/14/12 
f 14/14/12 16/16/14 7/31/6 
f 5/33/5 2/34/2 12/12/11 
f 12/12/11 14/14/12 5/33/5 
f 2/35/2 1/36/1 9/9/8 
f 9/9/8 12/12/11 2/35/2 
f 4/4/4 3/3/3 25/37/23 
f 25/37/23 26/38/24 4/4/4 
f 3/3/3 6/6/3 27/39/25 
f 27/39/25 25/37/23 3/3/3 
f 6/6/3 8/8/7 28/40/26 
f 28/40/26 27/39/25 6/6/3 
f 8/29/7 15/15/13 29/41/27 
f 29/41/27 28/42/26 8/29/7 
f 15/15/13 13/13/10 30/43/28 
f 30/43/28 29/41/27 15/15/13 
f 13/13/10 11/11/10 31/44/29 
f 31/44/29 30/43/28 13/13/10 
f 11/11/10 10/10/9 32/45/30 
f 32/45/30 31/44/29 11/11/10 
f 10/10/9 4/18/4 26/46/24 
f 26/46/24 32/45/30 10/10/9 
f 26/38/24 25/37/23 18/47/16 
f 18/47/16 17/48/15 26/38/24 
f 25/37/23 27/39/25 21/49/19 
f 21/49/19 18/47/16 25/37/23 
f 27/39/25 28/40/26 23/50/21 
f 23/50/21 21/49/19 27/39/25 
f 28/42/26 29/41/27 24/28/22 
f 24/28/22 23/51/21 28/42/26 
f 29/41/27 30/43/28 22/25/20 
f 22/25/20 24/28/22 29/41/27 
f 30/43/28 31/44/29 19/21/17 
f 19/21/17 22/25/20 30/43/28 
f 31/44/29 32/45/30 20/22/18 
f 20/22/18 19/21/17 31/44/29 
f 32/45/30 26/46/24 17/52/15 
f 17/52/15 20/22/18 32/45/30 
# 60 faces

#
# object incenseStick
#

v  -3.3176 3.4775 0.0831
v  -3.3176 3.4775 -0.2169
v  4.0010 1.5161 -0.2169
v  4.0010 1.5161 0.0831
v  -3.2399 3.7672 0.0831
v  4.0787 1.8059 0.0831
v  4.0787 1.8059 -0.2169
v  -3.2399 3.7672 -0.2169
v  4.0204 1.5886 0.0081
v  4.0204 1.5886 -0.1419
v  5.7457 1.1262 -0.1419
v  5.7457 1.1262 0.0081
v  4.0593 1.7335 0.0081
v  5.7845 1.2711 0.0081
v  5.7845 1.2711 -0.1419
v  4.0593 1.7335 -0.1419
# 16 vertices

vn -0.2589 -0.9659 -0.0000
vn 0.2589 0.9659 -0.0000
vn 0.0000 0.0000 1.0000
vn 0.9659 -0.2589 -0.0000
vn 0.0000 0.0000 -1.0000
vn -0.9659 0.2589 -0.0000
# 6 vertex normals

vt 0.7188 0.5938 0.0000
vt 0.7188 0.6250 0.0000
vt 0.0938 0.6250 0.0000
vt 0.0938 0.5938 0.0000
vt 0.7188 0.6875 0.0000
vt 0.0938 0.6875 0.0000
vt 0.0938 0.6563 0.0000
vt 0.7188 0.6563 0.0000
vt 0.0938 0.5625 0.0000
vt 0.7188 0.5625 0.0000
vt 0.0625 0.6875 0.0000
vt 0.0625 0.6563 0.0000
vt 0.7500 0.6563 0.0000
vt 0.7500 0.6875 0.0000
vt 0.7813 0.6875 0.0000
vt 0.7813 0.6563 0.0000
vt 0.8438 0.6563 0.0000
vt 0.8438 0.6875 0.0000
vt 0.7813 0.5938 0.0000
vt 0.8438 0.5938 0.0000
vt 0.8438 0.6250 0.0000
vt 0.7813 0.6250 0.0000
vt 0.7813 0.5625 0.0000
vt 0.8438 0.5625 0.0000
vt 0.8750 0.5938 0.0000
vt 0.8750 0.6250 0.0000
vt 0.7500 0.6250 0.0000
vt 0.7500 0.5938 0.0000
# 28 texture coords

g incenseStick
usemtl default
s 2
f 33/53/31 34/54/31 35/55/31 
f 35/55/31 36/56/31 33/53/31 
s 4
f 37/57/32 38/58/32 39/59/32 
f 39/59/32 40/60/32 37/57/32 
s 8
f 33/53/33 36/56/33 38/61/33 
f 38/61/33 37/62/33 33/53/33 
s 16
f 36/63/34 35/64/34 39/59/34 
f 39/59/34 38/58/34 36/63/34 
s 32
f 35/55/35 34/54/35 40/60/35 
f 40/60/35 39/59/35 35/55/35 
s 64
f 34/65/36 33/66/36 37/57/36 
f 37/57/36 40/60/36 34/65/36 
s 2
f 41/67/31 42/68/31 43/69/31 
f 43/69/31 44/70/31 41/67/31 
s 4
f 45/71/32 46/72/32 47/73/32 
f 47/73/32 48/74/32 45/71/32 
s 8
f 41/75/33 44/76/33 46/72/33 
f 46/72/33 45/71/33 41/75/33 
s 16
f 44/77/34 43/78/34 47/73/34 
f 47/73/34 46/72/34 44/77/34 
s 32
f 43/69/35 42/68/35 48/74/35 
f 48/74/35 47/73/35 43/69/35 
s 64
f 42/79/36 41/80/36 45/71/36 
f 45/71/36 48/74/36 42/79/36 
# 24 faces

